<svg xmlns="http://www.w3.org/2000/svg" xmlns:xlink="http://www.w3.org/1999/xlink" viewBox="0 0 78.45 142.52"><defs><style>.cls-1{fill:url(#linear-gradient);}.cls-2{fill:url(#linear-gradient-2);}.cls-3{fill:url(#linear-gradient-3);}.cls-4{fill:url(#linear-gradient-4);}.cls-5{font-size:32.57px;fill:#4894f4;font-family:Poppins-Bold, Poppins;font-weight:700;}</style><linearGradient id="linear-gradient" x1="52.56" y1="26.61" x2="15.51" y2="81.09" gradientUnits="userSpaceOnUse"><stop offset="0.02" stop-color="#97c0ff"/><stop offset="1" stop-color="#588eff"/></linearGradient><linearGradient id="linear-gradient-2" x1="1.83" y1="75.73" x2="24.65" y2="75.73" xlink:href="#linear-gradient"/><linearGradient id="linear-gradient-3" x1="10.99" y1="77.68" x2="2.34" y2="85.22" gradientUnits="userSpaceOnUse"><stop offset="0" stop-color="#4271db"/><stop offset="0.97" stop-color="#588eff" stop-opacity="0"/></linearGradient><linearGradient id="linear-gradient-4" x1="27.51" y1="31.75" x2="52.32" y2="-3.81" xlink:href="#linear-gradient-3"/></defs><g id="Layer_2" data-name="Layer 2"><g id="OBJECTS"><path class="cls-1" d="M76.13,23.29h0A23.28,23.28,0,0,0,52.85,0h-51V46.57h8.62A25.06,25.06,0,0,1,35.51,71.63V93.14H76.13V71.63A25.06,25.06,0,0,0,51.07,46.57h1.78A23.28,23.28,0,0,0,76.13,23.29Z"/><path class="cls-2" d="M6.16,58.31H1.83V93.14H24.65V76.8A18.49,18.49,0,0,0,6.16,58.31Z"/><path class="cls-3" d="M24.65,93.14C6.5,84.41,1.83,58.31,1.83,58.31V93.14Z"/><path class="cls-4" d="M51.07,46.57h1.78A23.29,23.29,0,0,0,52.85,0h-51V13.68c8.47,1,19.31,4.28,25.28,13.94C37.88,45,51.07,46.57,51.07,46.57Z"/><text class="cls-5" transform="translate(0 122.79)">R n B</text></g></g></svg>